<?xml version="1.0" encoding="utf-8"?>
<!-- Generator: Adobe Illustrator 27.2.0, SVG Export Plug-In . SVG Version: 6.00 Build 0)  -->
<svg version="1.1" id="Camada_1" xmlns="http://www.w3.org/2000/svg" xmlns:xlink="http://www.w3.org/1999/xlink" x="0px" y="0px"
	 viewBox="0 0 800 530" style="enable-background:new 0 0 800 530;" xml:space="preserve">
<style type="text/css">
	.st0{fill:#007CFF;}
	.st1{opacity:0.3;enable-background:new    ;}
	.st2{opacity:0.7;fill:#FFFFFF;enable-background:new    ;}
	.st3{opacity:0.3;}
	.st4{fill:#1A2E35;}
	.st5{opacity:0.3;fill:#FFFFFF;enable-background:new    ;}
	.st6{opacity:0.1;fill:#FFFFFF;enable-background:new    ;}
	.st7{opacity:0.2;}
	.st8{fill:#FFFFFF;}
	.st9{fill:#042236;}
	.st10{clip-path:url(#SVGID_00000114035785564626394130000000432877855714741933_);}
	.st11{fill:#E1E1E1;}
	.st12{fill:#F0F0F0;}
</style>
<g>
	<g>
		<path class="st0" d="M121.3,276.1c0,0-16.5,4.9-18,9.7c-1.6,5.1,9.1,41.1,16.3,41.6c7.2,0.6,18.1-6.1,18.1-6.1L121.3,276.1z"/>
		<path class="st0" d="M172,334.9c0,0,21.6,94.8,23.5,101c1.9,6.1,53,2.7,52.1-1.9c-1-4.5-13-12.3-12.5-18.4c0.5-6.1,5.8-16,4.8-21
			c-1-5-14.9-9.5-13.5-17.6c1.5-8.1,8.8-14.1,9.2-19.8c0.5-5.7-3.9-22.7-3.9-22.7L172,334.9z"/>
		<path class="st1" d="M172,334.9c0,0,21.6,94.8,23.5,101c1.9,6.1,53,2.7,52.1-1.9c-1-4.5-13-12.3-12.5-18.4c0.5-6.1,5.8-16,4.8-21
			c-1-5-14.9-9.5-13.5-17.6c1.5-8.1,8.8-14.1,9.2-19.8c0.5-5.7-3.9-22.7-3.9-22.7L172,334.9z"/>
		<path class="st0" d="M131.7,318.8c0,0-35.8-59.1,25.9-83.4l30.1,99.3C187.7,334.7,146,343.2,131.7,318.8z"/>
		<g>
			<path class="st0" d="M159.8,234.2c0,0,50.6-29.9,69.3-41.8c34.8-22.2,54.9-48.7,54.9-48.7l70.5,199.2c0,0-67-5.1-103-7.4
				s-68.1-0.6-68.1-0.6s-25.8-24-29.2-62.4C150.6,234.2,159.8,234.2,159.8,234.2z"/>
			<path class="st2" d="M159.8,234.2c0,0,50.6-29.9,69.3-41.8c34.8-22.2,54.9-48.7,54.9-48.7l70.5,199.2c0,0-67-5.1-103-7.4
				s-68.1-0.6-68.1-0.6s-25.8-24-29.2-62.4C150.6,234.2,159.8,234.2,159.8,234.2z"/>
		</g>
		
			<ellipse transform="matrix(0.9733 -0.2296 0.2296 0.9733 -41.3343 90.3414)" class="st0" cx="367.6" cy="222.8" rx="88.4" ry="138.9"/>
		
			<ellipse transform="matrix(0.9733 -0.2296 0.2296 0.9733 -41.2547 91.3084)" class="st1" cx="371.8" cy="222.9" rx="66.1" ry="115.2"/>
		<g class="st3">
			<path d="M308.5,152.5c11.7-3.2,30.4,10.3,41.7,23.3c35.5,40.6,40.3,105.3,11.6,150.9C316.5,298.2,289.5,212.8,308.5,152.5"/>
		</g>
		<path class="st0" d="M157.4,334.9c0,0,17.9,98.1,19.4,104.5c1.6,6.4,43.7,2.7,42.9-1.9c-0.8-4.7-10.7-12.7-10.3-19
			c0.5-6.4,4.8-16.6,4-21.8s-12.3-9.9-11.1-18.2s7.2-14.6,7.6-20.6c0.5-5.9-3.2-23.5-3.2-23.5L157.4,334.9z"/>
		<g>
			<path class="st0" d="M307.5,238c3.6,15.5,9,29.9,15.4,42.5c3.4-1.6,67.1-30.1,68.9-32.1c1.9-1.9-15.1-59.4-15.1-59.4l-74.4,12.3
				C302.8,213.1,304.5,225.4,307.5,238z"/>
			<path class="st2" d="M307.5,238c3.6,15.5,9,29.9,15.4,42.5c3.4-1.6,67.1-30.1,68.9-32.1c1.9-1.9-15.1-59.4-15.1-59.4l-74.4,12.3
				C302.8,213.1,304.5,225.4,307.5,238z"/>
			
				<ellipse transform="matrix(0.9733 -0.2296 0.2296 0.9733 -39.9579 94.0442)" class="st0" cx="384.2" cy="218.7" rx="17.3" ry="30.5"/>
		</g>
		<g class="st3">
			<g>
				<path d="M212.4,362.9c5.8-0.7,11.7-1.4,17.5-1.9c0.9-0.1,1.7-0.7,1.7-1.7c0-0.8-0.8-1.8-1.7-1.7c-5.8,0.7-11.7,1.4-17.5,1.9
					c-0.9,0.1-1.7,0.7-1.7,1.7C210.7,362,211.5,363,212.4,362.9L212.4,362.9z"/>
			</g>
		</g>
		<g class="st3">
			<g>
				<path d="M216.1,395.3c7.1-0.7,14.2-1.2,21.4-1.6c2.2-0.1,2.2-3.5,0-3.4c-7.2,0.3-14.2,0.9-21.4,1.6c-0.9,0.1-1.7,0.7-1.7,1.7
					C214.4,394.4,215.1,395.3,216.1,395.3L216.1,395.3z"/>
			</g>
		</g>
		<path class="st4" d="M212.4,334.5c-0.8,0.1,2.4,19.9,5.9,20.1c3.5,0.2,22.9-0.7,23-2.4c0.2-4-4.5-17.5-4.5-17.5
			S218.3,333.3,212.4,334.5z"/>
		<g class="st3">
			<g>
				<path d="M106.7,299c1.9-0.5,4-1,5.9-1.5c0.9-0.2,1.5-1.2,1.2-2.2c-0.3-0.9-1.1-1.4-2.2-1.1c-1.9,0.5-4,1-5.9,1.5
					c-0.9,0.2-1.5,1.2-1.2,2.2C104.8,298.7,105.8,299.2,106.7,299L106.7,299z"/>
			</g>
		</g>
		<g class="st3">
			<g>
				<path d="M108.4,305.7c1.9-0.5,4-1,5.9-1.5c0.9-0.2,1.5-1.2,1.2-2.2c-0.3-0.9-1.1-1.4-2.2-1.1c-1.9,0.5-4,1-5.9,1.5
					c-0.9,0.2-1.5,1.2-1.2,2.2C106.6,305.5,107.5,305.9,108.4,305.7L108.4,305.7z"/>
			</g>
		</g>
		<g class="st3">
			<g>
				<path d="M111,312.4c1.9-0.5,4-1,5.9-1.5c0.9-0.2,1.5-1.2,1.2-2.2c-0.3-0.9-1.1-1.4-2.2-1.1c-1.9,0.5-4,1-5.9,1.5
					c-0.9,0.2-1.5,1.2-1.2,2.2C109.3,312.2,110.1,312.6,111,312.4L111,312.4z"/>
			</g>
		</g>
		<g class="st3">
			<g>
				<path d="M113.9,319.6c1.9-0.5,4-1,5.9-1.5c0.9-0.2,1.5-1.2,1.2-2.2c-0.3-0.9-1.1-1.4-2.2-1.1c-1.9,0.5-4,1-5.9,1.5
					c-0.9,0.2-1.5,1.2-1.2,2.2C112.1,319.4,113,319.8,113.9,319.6L113.9,319.6z"/>
			</g>
		</g>
		<path class="st5" d="M161.2,239.5c0,0-5,32.9,5.5,46.3c10.5,13.4,112.5-28.5,112.5-28.5s-17.7-43.6-8.5-76.8
			c2.8-10.3,3.4-14.1,1.6-13.5c-4,1.2-18.8,21.4-50.7,38.4C199.7,216.9,161.2,239.5,161.2,239.5z"/>
		<path class="st1" d="M157.4,334.9l1.8,9.9c0,0,79,0.6,79.9-3l-2.3-7.1C223.7,333.6,189.2,334.4,157.4,334.9z"/>
		<path class="st1" d="M341.4,272.2c-20.1-30.7-22.3-64.2-22.5-73.6l-16.5,2.7c0.5,11.8,2.2,24.1,5.1,36.6
			c3.6,15.5,9,29.9,15.4,42.5C324,280,331.6,276.6,341.4,272.2z"/>
		<path class="st1" d="M121.3,276.1c3.2,16.6,7.4,32.3,13.3,46.8l-3,1.5c-1.5,0.7-16.6-46.3-14.4-47
			C118,277.3,121.3,276.1,121.3,276.1z"/>
		<path class="st6" d="M357.1,117.3c-1.7-0.3-16.9,30.4-15.6,34.8c1.2,4.4,21.2,28.8,26,28.8c4.9,0,47-1.9,47-7.2
			C414.5,168.5,393.3,125,357.1,117.3z"/>
		<path class="st6" d="M394.8,263.9c0,0-12.4,41.8-10.6,45.5c1.8,3.6,30.8,0.8,37.3-6c6.6-6.7,13.6-40,13.1-45.5
			C434.1,252.5,394.8,263.9,394.8,263.9z"/>
		<g class="st7">
			<path class="st8" d="M209.7,430.6c-1.1-3.6-6.1-4.2-7.7-7.4c-2-4,2.2-8.4,1.8-12.7c-0.2-2.8-2.4-5.1-4.9-6.5
				c-2.5-1.2-5.3-1.7-8.2-2c-4.4-0.6-10.1-1-14,1.4c0.1,6.7,2.2,15,4.2,21.5c0.8,2.7,1.9,5.5,4.1,7.3c1.9,1.7,4.7,2.3,7.2,2.6
				c4.4,0.7,8.9,0.8,13.3,0.3c1.6-0.1,3.4-0.5,4.1-2C209.9,432.2,209.9,431.3,209.7,430.6z"/>
		</g>
	</g>
	<path class="st9" d="M604.4,275.8L604.4,275.8l-7.1,71.5H463.2l-7.7,77.6h-31.5l5-49.7c6-3.4,11.6-7.8,16.6-12.4
		c6.4-5.8,11.9-13,16.7-20.1c5.2-7.8,9.1-16.5,12.6-25.2c6.9-16.8,9.9-35.3,11.3-53.3c0.7-10,0.6-20-0.2-30c-1.1-13-3.1-26-6-38.8
		c-2.4-10.2-5.6-20.4-9.4-30.1c-4.5-11.3-9.4-22.4-15.6-33c-5.7-9.8-12.5-19-19.8-27.7c-5.5-6.6-11.5-12.7-18.1-18.1
		c-7.7-6.3-15.6-12.3-24.6-16.6c-8.4-4.1-17.3-7.7-26.5-9.2c-5.6-0.9-11.4-1.8-17.1-1.8s-11.5,0.8-17.1,1.8
		c-3.9,0.7-7.6,1.7-11.3,3.2c-6,2.4-11.9,4.9-17.4,8.4c-5.3,3.5-10.5,7.5-15.1,11.9c-4.8,4.5-8.8,9.9-12.7,15.1
		c-7.1,9.4-11.9,20.2-16.1,31.2c-0.1,0.3-0.2,0.7-0.3,1c-8.8,9.9-18.5,19-28.9,27.2c-12.4,9.2-25.7,17.2-38.9,25.1
		c-12.3,7.4-24.6,14.8-37,22.1c-2.5,1.5-4.9,3-7.4,4.4c-0.7,0.2-1.4,0.6-2,1c-0.2,0.2-0.6,0.5-0.9,0.7c-4.4,1.9-8.9,4-13.1,6.6
		c-3.8,2.3-7.2,5.1-10.6,7.7c-1.6,1.2-3.2,2.6-4.7,4c-1.4,1.4-2.6,2.7-3.9,4.2c-2.5,3.1-5,6.3-7.2,9.5c-2.3,3.6-4.1,7.6-5.6,11.6
		c-1.8,0.9-3.6,1.8-5.3,2.8c-3.2,1.9-6.3,4.1-8.8,6.8c-1.8,2-3.6,4.2-4.9,6.6c-2.8,5-2.7,6.1-3.4,10.9c-0.2,1.7-0.6,3.4-0.6,5.2
		c0.1,3.2,0.8,6.7,1.2,9.7c0.3,2.3,0.8,4.5,1.4,6.7c1.4,5.5,3.1,10.8,5.1,16c1.8,4.4,3.5,9,5.8,13.3c2,4,4.7,7.4,7.5,10.8
		c0.9,1.1,1.9,2.2,3.1,3.1H82.4L68,492h91.5l3-28.5l1.7-15.5h32.4l-5.1,44h134.1h11.8l-3,30.8h29.1h21.2h11.5h32.1h4.2h16.9h11.5
		h32.9h3.4h26.7h6.1h26.5h3.6H572h20.7h11.6h22.9h9.9h3.6h32.6h17.5l17.6-13.6L732,276L604.4,275.8L604.4,275.8z"/>
	<g>
		<polygon class="st8" points="209.9,395 212.8,366.7 99.9,366.7 89.4,472.5 142,472.5 146.3,431.4 206.3,431.4 208.5,407.8 
			148.7,407.8 149.9,395 		"/>
		<path class="st8" d="M223.3,366.7l-10.6,105.8H268l2.7-28.3h13l-2.8,28.3h55.4l10.6-105.8H223.3z M287.9,402.1
			c-0.3,2.8-0.6,5.6-0.8,8.2c-0.3,3.1-0.6,6.1-0.9,9.2h-12.9l2.4-24.7h12.9C288.5,397,288.2,399.4,287.9,402.1z"/>
		<polygon class="st8" points="410.3,366.7 357.4,366.7 346.8,472.5 459.8,472.5 462.5,444.2 402.6,444.2 		"/>
		<path class="st8" d="M480.7,366.7l-10.6,105.8h55.3l2.7-28.3h13l-2.8,28.3h55.3l10.6-105.8H480.7z M545.3,402.1
			c-0.3,2.8-0.6,5.6-0.8,8.2c-0.3,3.1-0.6,6.1-0.9,9.2h-12.9l2.4-24.7H546C545.8,397,545.5,399.4,545.3,402.1z"/>
		<polygon class="st8" points="621.9,295.1 610.8,407.4 699.4,407.4 710.6,295.1 		"/>
		<polygon class="st8" points="604.2,472.5 692.5,472.5 697.7,425.1 608.9,425.1 		"/>
	</g>
	<g>
		<polygon class="st8" points="371.3,484.4 369.3,503.2 356.2,503.2 355.6,510.2 377.6,510.2 382.7,506 384.7,484.4 		"/>
		<path class="st8" d="M387.3,484.4l-2.6,25.8h13.5l0.7-6.8h3.2l-0.7,6.8H415l2.6-25.8H387.3z M403,493c-0.1,0.7-0.1,1.4-0.2,2
			c-0.1,0.7-0.1,1.5-0.2,2.3h-3.2l0.6-6h3.2C403.1,491.8,403.1,492.3,403,493z"/>
		<polygon class="st8" points="448.4,495.5 449.4,484.4 420,484.4 417.4,510.2 442.4,510.2 447.4,506 448,498.7 434.6,498.7 
			434.1,503.2 431,503.2 432.1,491.3 435.3,491.3 434.9,495.5 		"/>
		<path class="st8" d="M452,484.4l-2.6,25.8h13.5l0.7-6.8h3.2l-0.7,6.8h13.4l2.6-25.8H452z M467.7,493c-0.1,0.7-0.1,1.4-0.2,2
			c-0.1,0.7-0.1,1.5-0.2,2.3h-3.2l0.6-6h3.2C467.8,491.8,467.8,492.3,467.7,493z"/>
		<path class="st8" d="M515,484.4h-30.4l-2.6,25.8h13.8l0.7-6.8h3.2l-0.7,6.8h13.4l1-10.5l-5.8-2l6.3-2.4L515,484.4z M500.6,494.4
			h-3.2l0.3-3.2h3.2L500.6,494.4z"/>
		<polygon class="st8" points="544.4,491.3 545,484.4 517.6,484.4 515,510.2 542.5,510.2 543.1,503.2 528.6,503.2 528.9,500.2 
			543.5,500.2 544,494.4 529.5,494.4 529.8,491.3 		"/>
		<polygon class="st8" points="577.7,484.4 547.7,484.4 547,491.3 558.9,491.3 545.8,502 545,510.2 575.2,510.2 575.9,503.2 
			564.4,503.2 576.9,492.8 		"/>
		<polygon class="st8" points="577.7,510.2 590.5,510.2 593.1,484.4 580.3,484.4 		"/>
		<polygon class="st8" points="612.1,484.4 611.1,494.7 607,484.4 595.9,484.4 593.3,510.2 606.5,510.2 607.4,500.7 611.2,510.2 
			623.1,510.2 625.7,484.4 		"/>
		<polygon class="st8" points="644.8,484.4 643.9,494.4 640.7,494.4 641.7,484.4 628.2,484.4 625.7,510.2 639.1,510.2 640.1,500.2 
			643.3,500.2 642.3,510.2 655.7,510.2 658.3,484.4 		"/>
		<path class="st8" d="M658.3,510.2h25.5l5-4.2l2.2-21.6h-30L658.3,510.2z M673.7,491.3h3.2l-1.1,11.9h-3.2L673.7,491.3z"/>
	</g>
	<g>
		<g>
			<g>
				<g>
					<g>
						<defs>
							<path id="SVGID_1_" d="M110.9,243.3L237.4,181l26.8-31.8c0,0,13.3-45.1,16.9-46.7c3.6-1.6,66-33.4,66-33.4l52.3,19.9
								l44.4,39.7l26.3,57.2l16.3,57.4l-14.6,81.2l-41.5,35.8l-83.6,6.5l-32.5-18.8l-60.5-8.5v20.7l-127.8-0.8l-27-23.1l-9.5-50.4
								L110.9,243.3z"/>
						</defs>
						<clipPath id="SVGID_00000039834979164732683000000008690328062700914334_">
							<use xlink:href="#SVGID_1_"  style="overflow:visible;"/>
						</clipPath>
						<g style="clip-path:url(#SVGID_00000039834979164732683000000008690328062700914334_);">
							<path class="st0" d="M121.3,276.1c0,0-16.5,4.9-18,9.7c-1.6,5.1,9.1,41.1,16.3,41.6c7.2,0.6,18.1-6.1,18.1-6.1L121.3,276.1z"
								/>
							<path class="st0" d="M172,334.9c0,0,21.6,94.8,23.5,101c1.9,6.1,53,2.7,52.1-1.9c-1-4.5-13-12.3-12.5-18.4
								c0.5-6.1,5.8-16,4.8-21c-1-5-14.9-9.5-13.5-17.6c1.5-8.1,8.8-14.1,9.2-19.8c0.5-5.7-3.9-22.7-3.9-22.7L172,334.9z"/>
							<path class="st1" d="M172,334.9c0,0,21.6,94.8,23.5,101c1.9,6.1,53,2.7,52.1-1.9c-1-4.5-13-12.3-12.5-18.4
								c0.5-6.1,5.8-16,4.8-21c-1-5-14.9-9.5-13.5-17.6c1.5-8.1,8.8-14.1,9.2-19.8c0.5-5.7-3.9-22.7-3.9-22.7L172,334.9z"/>
							<path class="st0" d="M131.7,318.8c0,0-35.8-59.1,25.9-83.4l30.1,99.3C187.7,334.7,146,343.2,131.7,318.8z"/>
							<g>
								<path class="st0" d="M159.8,234.2c0,0,50.6-29.9,69.3-41.8c34.8-22.2,54.9-48.7,54.9-48.7l70.5,199.2c0,0-67-5.1-103-7.4
									s-68.1-0.6-68.1-0.6s-25.8-24-29.2-62.4C150.6,234.2,159.8,234.2,159.8,234.2z"/>
								<path class="st2" d="M159.8,234.2c0,0,50.6-29.9,69.3-41.8c34.8-22.2,54.9-48.7,54.9-48.7l70.5,199.2c0,0-67-5.1-103-7.4
									s-68.1-0.6-68.1-0.6s-25.8-24-29.2-62.4C150.6,234.2,159.8,234.2,159.8,234.2z"/>
							</g>
							
								<ellipse transform="matrix(0.9733 -0.2296 0.2296 0.9733 -41.3343 90.3414)" class="st0" cx="367.6" cy="222.8" rx="88.4" ry="138.9"/>
							
								<ellipse transform="matrix(0.9733 -0.2296 0.2296 0.9733 -41.2547 91.3084)" class="st1" cx="371.8" cy="222.9" rx="66.1" ry="115.2"/>
							<g class="st3">
								<path d="M308.5,152.5c11.7-3.2,30.4,10.3,41.7,23.3c35.5,40.6,40.3,105.3,11.6,150.9C316.5,298.2,289.5,212.8,308.5,152.5"
									/>
							</g>
							<path class="st0" d="M157.4,334.9c0,0,17.9,98.1,19.4,104.5c1.6,6.4,43.7,2.7,42.9-1.9c-0.8-4.7-10.7-12.7-10.3-19
								c0.5-6.4,4.8-16.6,4-21.8s-12.3-9.9-11.1-18.2s7.2-14.6,7.6-20.6c0.5-5.9-3.2-23.5-3.2-23.5L157.4,334.9z"/>
							<g>
								<path class="st0" d="M307.5,238c3.6,15.5,9,29.9,15.4,42.5c3.4-1.6,67.1-30.1,68.9-32.1c1.9-1.9-15.1-59.4-15.1-59.4
									l-74.4,12.3C302.8,213.1,304.5,225.4,307.5,238z"/>
								<path class="st2" d="M307.5,238c3.6,15.5,9,29.9,15.4,42.5c3.4-1.6,67.1-30.1,68.9-32.1c1.9-1.9-15.1-59.4-15.1-59.4
									l-74.4,12.3C302.8,213.1,304.5,225.4,307.5,238z"/>
								
									<ellipse transform="matrix(0.9733 -0.2296 0.2296 0.9733 -39.9579 94.0442)" class="st0" cx="384.2" cy="218.7" rx="17.3" ry="30.5"/>
							</g>
							<g class="st3">
								<g>
									<path d="M212.4,362.9c5.8-0.7,11.7-1.4,17.5-1.9c0.9-0.1,1.7-0.7,1.7-1.7c0-0.8-0.8-1.8-1.7-1.7
										c-5.8,0.7-11.7,1.4-17.5,1.9c-0.9,0.1-1.7,0.7-1.7,1.7C210.7,362,211.5,363,212.4,362.9L212.4,362.9z"/>
								</g>
							</g>
							<g class="st3">
								<g>
									<path d="M216.1,395.3c7.1-0.7,14.2-1.2,21.4-1.6c2.2-0.1,2.2-3.5,0-3.4c-7.2,0.3-14.2,0.9-21.4,1.6
										c-0.9,0.1-1.7,0.7-1.7,1.7C214.4,394.4,215.1,395.3,216.1,395.3L216.1,395.3z"/>
								</g>
							</g>
							<path class="st4" d="M212.4,334.5c-0.8,0.1,2.4,19.9,5.9,20.1c3.5,0.2,22.9-0.7,23-2.4c0.2-4-4.5-17.5-4.5-17.5
								S218.3,333.3,212.4,334.5z"/>
							<g class="st3">
								<g>
									<path d="M106.7,299c1.9-0.5,4-1,5.9-1.5c0.9-0.2,1.5-1.2,1.2-2.2c-0.3-0.9-1.1-1.4-2.2-1.1c-1.9,0.5-4,1-5.9,1.5
										c-0.9,0.2-1.5,1.2-1.2,2.2C104.8,298.7,105.8,299.2,106.7,299L106.7,299z"/>
								</g>
							</g>
							<g class="st3">
								<g>
									<path d="M108.4,305.7c1.9-0.5,4-1,5.9-1.5c0.9-0.2,1.5-1.2,1.2-2.2c-0.3-0.9-1.1-1.4-2.2-1.1c-1.9,0.5-4,1-5.9,1.5
										c-0.9,0.2-1.5,1.2-1.2,2.2C106.6,305.5,107.5,305.9,108.4,305.7L108.4,305.7z"/>
								</g>
							</g>
							<g class="st3">
								<g>
									<path d="M111,312.4c1.9-0.5,4-1,5.9-1.5c0.9-0.2,1.5-1.2,1.2-2.2c-0.3-0.9-1.1-1.4-2.2-1.1c-1.9,0.5-4,1-5.9,1.5
										c-0.9,0.2-1.5,1.2-1.2,2.2C109.3,312.2,110.1,312.6,111,312.4L111,312.4z"/>
								</g>
							</g>
							<g class="st3">
								<g>
									<path d="M113.9,319.6c1.9-0.5,4-1,5.9-1.5c0.9-0.2,1.5-1.2,1.2-2.2c-0.3-0.9-1.1-1.4-2.2-1.1c-1.9,0.5-4,1-5.9,1.5
										c-0.9,0.2-1.5,1.2-1.2,2.2C112.1,319.4,113,319.8,113.9,319.6L113.9,319.6z"/>
								</g>
							</g>
							<path class="st5" d="M161.2,239.5c0,0-5,32.9,5.5,46.3c10.5,13.4,112.5-28.5,112.5-28.5s-17.7-43.6-8.5-76.8
								c2.8-10.3,3.4-14.1,1.6-13.5c-4,1.2-18.8,21.4-50.7,38.4C199.7,216.9,161.2,239.5,161.2,239.5z"/>
							<path class="st1" d="M157.4,334.9l1.8,9.9c0,0,79,0.6,79.9-3l-2.3-7.1C223.7,333.6,189.2,334.4,157.4,334.9z"/>
							<path class="st1" d="M341.4,272.2c-20.1-30.7-22.3-64.2-22.5-73.6l-16.5,2.7c0.5,11.8,2.2,24.1,5.1,36.6
								c3.6,15.5,9,29.9,15.4,42.5C324,280,331.6,276.6,341.4,272.2z"/>
							<path class="st1" d="M121.3,276.1c3.2,16.6,7.4,32.3,13.3,46.8l-3,1.5c-1.5,0.7-16.6-46.3-14.4-47
								C118,277.3,121.3,276.1,121.3,276.1z"/>
							<path class="st6" d="M357.1,117.3c-1.7-0.3-16.9,30.4-15.6,34.8c1.2,4.4,21.2,28.8,26,28.8c4.9,0,47-1.9,47-7.2
								C414.5,168.5,393.3,125,357.1,117.3z"/>
							<path class="st6" d="M394.8,263.9c0,0-12.4,41.8-10.6,45.5c1.8,3.6,30.8,0.8,37.3-6c6.6-6.7,13.6-40,13.1-45.5
								C434.1,252.5,394.8,263.9,394.8,263.9z"/>
							<g class="st7">
								<path class="st8" d="M209.7,430.6c-1.1-3.6-6.1-4.2-7.7-7.4c-2-4,2.2-8.4,1.8-12.7c-0.2-2.8-2.4-5.1-4.9-6.5
									c-2.5-1.2-5.3-1.7-8.2-2c-4.4-0.6-10.1-1-14,1.4c0.1,6.7,2.2,15,4.2,21.5c0.8,2.7,1.9,5.5,4.1,7.3c1.9,1.7,4.7,2.3,7.2,2.6
									c4.4,0.7,8.9,0.8,13.3,0.3c1.6-0.1,3.4-0.5,4.1-2C209.9,432.2,209.9,431.3,209.7,430.6z"/>
							</g>
						</g>
					</g>
				</g>
			</g>
		</g>
	</g>
	<g>
		<path class="st11" d="M185.1,25.5c1,1,33.4,49.8,33.4,49.8s11-26.4,13.1-25.1c2,1.2,24.8,40.8,24.8,40s-18.8-65.7-23.3-63.3
			c-4.5,2.5-13.9,19.7-13.9,19.7L199.1,7.2L185.1,25.5z"/>
		<path class="st12" d="M166.7,119.4c0.9,0.1,37.5,11.4,37.5,11.4s-5.3-18-3.8-18.2c1.6-0.2,29.5,10.3,29.1,10
			c-0.3-0.3-36.7-25.5-38.1-22.4c-1.2,3.2,1.1,15.7,1.1,15.7l-26.5-11.6L166.7,119.4z"/>
		<path class="st0" d="M557.6,205.3c-0.9-0.3-30.8-22.6-30.8-22.6s-0.9,18.2-2.4,18c-1.5-0.2-23.6-19.1-23.4-18.6
			c0.2,0.5,25.5,35.4,27.6,32.9c2.3-2.5,4.1-14.8,4.1-14.8l20.6,19.2L557.6,205.3z"/>
		<path class="st0" d="M568,115.5c-1.1,0.5-48.7,7.8-48.7,7.8s15.9,17.3,14.3,18.4c-1.6,1.1-39,4.5-38.3,4.8
			c0.7,0.2,55.5,8.5,55.3,4.2c-0.2-4.3-10-17.1-10-17.1l36.3-1.6L568,115.5z"/>
		<path class="st0" d="M522.2,58.9c-0.5,0.7-25.7,22.3-25.7,22.3s15.7,4.4,15.1,5.7c-0.6,1.2-21.3,16.8-20.8,16.7
			c0.5-0.1,35.7-15.1,34-17.5c-1.7-2.4-12.1-6.5-12.1-6.5l20.7-14.1L522.2,58.9z"/>
	</g>
</g>
</svg>
